<?xml version="1.0" standalone="no"?>
<!DOCTYPE svg PUBLIC "-//W3C//DTD SVG 20010904//EN"
 "http://www.w3.org/TR/2001/REC-SVG-20010904/DTD/svg10.dtd">
<svg version="1.0" xmlns="http://www.w3.org/2000/svg"
 width="512.000000pt" height="512.000000pt" viewBox="0 0 512.000000 512.000000"
 preserveAspectRatio="xMidYMid meet">
<metadata>
Created by potrace 1.11, written by Peter Selinger 2001-2013
</metadata>
<g transform="translate(0.000000,512.000000) scale(0.100000,-0.100000)"
fill="#000000" stroke="none">
<path d="M2289 4805 c-2 -2 -60 -5 -128 -6 -68 -1 -146 -6 -175 -10 -28 -4
-71 -10 -96 -13 -131 -19 -326 -81 -464 -146 -91 -43 -218 -113 -238 -129 -7
-6 -43 -34 -79 -61 -230 -170 -423 -404 -547 -661 -61 -126 -121 -298 -139
-399 -2 -14 -9 -45 -14 -70 -6 -25 -13 -76 -16 -114 -6 -85 -7 -88 -16 -102
-3 -6 -4 -14 -1 -17 3 -3 5 -57 6 -120 0 -63 6 -156 14 -207 l14 -93 -34 -61
c-59 -109 -97 -180 -139 -256 -22 -41 -52 -97 -67 -125 -15 -27 -48 -89 -74
-136 -50 -94 -55 -118 -28 -141 17 -15 359 -148 381 -148 6 0 11 -4 11 -10 0
-5 3 -9 8 -8 4 1 30 -6 57 -16 l50 -18 0 -425 -1 -425 22 -17 c20 -16 54 -18
378 -17 196 1 357 -1 357 -4 1 -3 2 -111 3 -240 1 -129 5 -245 9 -257 5 -12
17 -25 29 -29 15 -4 1444 -9 1705 -5 85 2 80 -34 80 580 l0 541 69 47 c97 64
221 170 287 245 209 234 287 351 375 558 70 167 119 352 138 520 11 102 6 319
-9 395 -4 17 -9 48 -12 70 -20 138 -102 388 -167 510 -6 10 -21 39 -34 63 -70
132 -227 336 -340 442 -313 295 -689 465 -1116 504 -20 2 -40 6 -46 10 -5 3
-11 4 -13 1z m-452 -514 c16 -18 18 -41 17 -245 0 -160 -4 -229 -13 -239 -19
-24 -59 -26 -86 -5 l-25 19 0 223 c0 184 3 225 16 244 19 28 66 29 91 3z m387
0 c15 -17 18 -45 18 -234 0 -118 -3 -224 -7 -236 -8 -26 -62 -42 -88 -27 -27
17 -29 36 -29 225 1 259 1 258 18 275 21 22 67 20 88 -3z m388 2 c16 -15 18
-36 18 -244 l0 -228 -25 -19 c-27 -21 -67 -19 -86 5 -9 10 -13 79 -13 235 -1
200 1 224 17 245 22 27 62 30 89 6z m108 -601 c19 -9 45 -32 57 -51 l23 -34 0
-496 c0 -474 -1 -497 -20 -528 -40 -67 -46 -68 -332 -69 -184 -1 -258 2 -258
10 0 8 -2 8 -8 0 -10 -15 -394 -15 -385 0 4 6 0 5 -9 -2 -38 -31 -137 10 -166
68 -15 32 -17 78 -16 525 1 553 -2 535 79 578 26 13 95 16 515 16 442 1 488
-1 520 -17z m-1211 -143 c26 -24 27 -49 2 -80 l-19 -24 -218 0 c-121 1 -229 4
-240 8 -20 7 -34 33 -34 64 0 7 10 21 22 33 21 19 33 20 244 19 206 -1 223 -2
243 -20z m1875 2 c25 -27 27 -57 6 -83 -18 -23 -21 -23 -250 -23 -216 1 -233
2 -246 20 -20 27 -17 62 6 85 19 19 33 20 243 20 206 0 225 -2 241 -19z
m-1892 -380 c4 -1 15 -12 24 -26 14 -21 14 -30 4 -55 -7 -17 -22 -33 -34 -35
-11 -3 -120 -4 -241 -3 l-219 3 -16 28 c-13 24 -13 30 0 55 13 22 24 28 65 32
38 4 372 4 417 1z m1893 -13 c25 -25 26 -54 4 -81 l-20 -27 -226 0 c-249 0
-263 3 -263 60 0 61 24 66 309 63 138 -1 187 -5 196 -15z m-1874 -397 c25 -30
24 -49 -3 -78 -21 -23 -24 -23 -245 -23 -210 0 -224 1 -243 20 -31 31 -20 83
20 98 11 4 117 7 236 7 214 0 216 -1 235 -24z m1875 7 c24 -24 21 -68 -6 -90
-21 -17 -44 -18 -242 -18 -203 1 -221 3 -239 21 -19 19 -25 55 -11 75 17 25
52 29 261 29 190 -1 223 -3 237 -17z m-1557 -353 c13 -12 16 -42 17 -138 1
-79 -3 -125 -10 -129 -7 -5 -8 -8 0 -8 7 0 10 -33 9 -92 -3 -111 -1 -103 -21
-122 -19 -20 -54 -20 -80 -2 -18 13 -19 29 -20 242 -2 225 -2 227 21 250 26
25 58 25 84 -1z m390 -1 c12 -11 15 -57 15 -235 1 -201 0 -225 -17 -246 -24
-30 -70 -31 -91 -1 -13 19 -16 59 -16 242 0 211 1 221 22 243 23 24 59 23 87
-3z m389 -2 c13 -17 14 -33 13 -296 -1 -186 -7 -206 -61 -206 -56 0 -60 16
-61 251 -1 118 2 225 6 238 13 41 74 49 103 13z"/>
<path d="M1790 3590 l-65 -5 -2 -460 c-1 -253 1 -468 3 -477 5 -17 37 -18 480
-18 261 0 474 3 475 8 5 29 3 936 -2 943 -6 10 -776 18 -889 9z"/>
<path d="M4272 4649 c-169 -31 -259 -209 -186 -368 27 -60 88 -117 146 -137
33 -11 33 -11 35 -80 2 -110 21 -101 -207 -100 -110 1 -200 -1 -200 -4 1 -3
14 -29 29 -59 l28 -54 88 2 c64 2 90 -1 96 -11 7 -10 9 -10 9 0 0 9 31 12 120
12 146 0 144 -2 146 150 2 143 0 137 32 143 15 3 48 22 74 41 126 96 136 296
20 400 -12 10 -19 23 -15 29 3 5 1 7 -4 4 -6 -4 -31 2 -55 13 -54 24 -99 29
-156 19z"/>
<path d="M4759 4139 c-90 -13 -160 -63 -202 -143 -33 -63 -31 -176 5 -236 35
-60 73 -94 131 -120 l47 -21 0 -118 0 -119 -167 -32 c-92 -17 -178 -34 -192
-37 -91 -16 -276 -55 -279 -58 -2 -2 0 -29 3 -60 6 -45 11 -55 23 -50 8 3 31
8 51 11 51 8 633 124 653 130 26 8 32 38 33 179 1 72 3 137 4 146 0 9 17 21
40 28 49 14 117 80 143 138 81 182 -90 393 -293 362z"/>
<path d="M4680 2807 c-57 -27 -113 -86 -136 -141 l-18 -44 -206 0 c-113 -1
-212 -1 -220 -1 -9 -1 -16 -9 -17 -18 0 -10 -4 -36 -8 -58 l-7 -40 230 0 230
1 13 -39 c30 -91 141 -170 240 -170 148 0 259 106 265 255 3 58 -1 75 -28 128
-64 128 -217 186 -338 127z"/>
<path d="M3887 2039 c-16 -27 -27 -52 -25 -53 2 -2 283 -59 401 -82 86 -16
185 -36 198 -40 12 -3 15 -24 15 -122 l0 -117 -48 -18 c-58 -22 -129 -98 -147
-157 -29 -96 -9 -188 56 -260 128 -143 362 -102 438 77 54 125 -13 287 -142
348 l-33 16 0 153 c0 188 6 180 -145 207 -27 4 -63 11 -80 14 -502 100 -454
97 -488 34z"/>
</g>
</svg>
