<?xml version="1.0" standalone="no"?>
<!DOCTYPE svg PUBLIC "-//W3C//DTD SVG 20010904//EN"
 "http://www.w3.org/TR/2001/REC-SVG-20010904/DTD/svg10.dtd">
<svg version="1.0" xmlns="http://www.w3.org/2000/svg"
 width="200.000000pt" height="200.000000pt" viewBox="0 0 200.000000 200.000000"
 preserveAspectRatio="xMidYMid meet">
<metadata>
Created by potrace 1.11, written by Peter Selinger 2001-2013
</metadata>
<g transform="translate(0.000000,200.000000) scale(0.100000,-0.100000)"
fill="#000000" stroke="none">
<path d="M527 1952 c-14 -15 -17 -40 -17 -120 l0 -102 -77 0 c-127 0 -162 -35
-163 -162 l0 -78 -98 0 c-111 0 -142 -13 -142 -58 0 -56 29 -69 153 -67 l87 2
0 -79 c0 -43 -3 -78 -7 -79 -5 0 -51 -2 -104 -3 -110 -2 -129 -11 -129 -62 0
-46 25 -57 140 -58 l95 -1 0 -80 0 -80 -90 -1 c-108 -1 -133 -8 -141 -39 -15
-61 22 -87 121 -85 33 1 72 1 88 1 l27 -1 0 -80 0 -80 -98 0 c-112 0 -142 -13
-142 -60 0 -47 30 -60 142 -60 l98 0 0 -71 c0 -131 37 -169 165 -170 49 -1 75
-5 76 -12 0 -7 1 -54 3 -104 2 -102 13 -125 61 -125 49 -1 58 20 59 134 l1
103 80 0 80 0 1 -103 c1 -114 10 -134 59 -134 49 -1 59 22 61 130 1 53 3 99 3
102 1 3 36 5 79 5 l77 0 2 -65 c1 -36 2 -81 2 -101 1 -49 21 -72 60 -71 51 1
60 23 61 135 0 70 3 97 13 98 46 5 140 3 143 -3 2 -4 5 -49 5 -100 0 -52 3
-99 7 -105 15 -22 50 -33 76 -23 31 11 36 30 39 145 l2 90 76 1 c128 2 161 36
163 167 l1 72 88 2 c112 2 135 8 147 38 12 30 -4 71 -30 78 -10 2 -57 5 -105
5 -49 1 -91 5 -94 10 -3 6 -6 41 -6 79 l1 68 99 5 c117 6 138 15 138 60 0 45
-21 54 -137 60 l-100 5 0 68 c-1 38 1 73 4 78 3 4 50 10 103 12 102 4 118 11
131 53 4 13 0 30 -12 44 -17 20 -28 23 -118 25 -54 1 -102 3 -105 4 -4 0 -6
36 -5 79 l2 77 104 1 c93 1 105 4 121 23 20 24 17 57 -6 80 -12 12 -40 16
-118 17 l-102 1 -2 78 c-4 124 -40 159 -163 161 l-75 1 -1 104 c-2 95 -4 105
-25 122 -26 21 -66 16 -86 -10 -7 -9 -12 -47 -12 -92 1 -135 10 -121 -80 -121
l-79 0 -4 106 c-3 91 -6 108 -22 120 -25 18 -57 18 -81 0 -15 -11 -19 -29 -21
-97 -1 -46 -3 -94 -3 -106 -1 -22 -5 -23 -81 -23 l-80 0 0 104 c0 116 -9 136
-60 136 -47 0 -60 -30 -60 -142 l0 -98 -80 0 -80 0 0 103 c0 88 -3 106 -18
120 -24 22 -65 21 -85 -1z m399 -351 c35 -2 54 -24 58 -68 2 -24 3 -43 1 -43
-1 0 -20 6 -41 13 -42 14 -88 12 -79 -4 4 -5 15 -9 25 -9 31 0 90 -32 91 -49
4 -67 -2 -127 -15 -140 -16 -15 -50 -18 -100 -8 -64 13 -128 -41 -128 -107 0
-53 29 -92 85 -115 60 -25 69 -26 65 -5 -2 9 -23 24 -48 34 -70 27 -88 79 -46
135 12 17 26 20 100 20 l86 0 0 -39 0 -38 -49 6 c-28 3 -52 2 -56 -3 -7 -13
11 -23 49 -27 54 -7 56 -10 56 -74 0 -51 -4 -64 -28 -91 -23 -26 -33 -31 -55
-25 -15 3 -35 15 -44 25 -26 29 -58 38 -153 45 -67 5 -101 2 -160 -12 -41 -11
-78 -18 -81 -16 -3 2 -6 18 -5 36 2 44 37 60 139 66 59 4 77 8 77 19 0 13 -14
14 -77 10 -43 -2 -90 -7 -105 -11 -23 -5 -28 -3 -28 13 0 34 22 71 46 77 13 3
46 1 74 -5 87 -19 108 -15 130 22 27 43 26 54 -15 138 -19 41 -35 82 -35 93 0
11 14 35 32 53 30 31 51 42 46 26 -4 -16 13 -114 24 -138 13 -29 36 -38 95
-37 82 2 82 29 0 33 -72 4 -82 16 -87 100 -3 58 -1 68 23 80 27 15 76 27 97
23 8 -1 24 -3 36 -3z m291 -27 c11 -14 13 -39 10 -92 -2 -39 -6 -74 -8 -76 -2
-2 -35 -6 -73 -9 -37 -3 -71 -9 -74 -12 -14 -13 26 -24 76 -20 72 5 90 12 98
38 10 28 9 24 18 80 5 26 12 50 17 53 5 3 20 -6 34 -20 32 -32 32 -70 1 -138
-40 -88 -48 -129 -31 -155 9 -13 23 -24 33 -24 34 -3 88 2 125 12 50 13 81 -6
94 -58 l10 -38 -96 3 c-53 2 -101 8 -106 12 -6 5 -17 5 -25 -1 -26 -17 17 -39
74 -38 28 1 72 -4 99 -11 47 -12 47 -13 47 -55 l0 -43 -32 8 c-18 4 -56 14
-84 20 -39 10 -77 10 -153 3 -97 -10 -102 -11 -130 -44 -26 -30 -33 -32 -57
-24 -43 16 -64 53 -68 123 l-4 62 34 1 c38 2 40 2 73 13 37 13 8 31 -52 31
l-52 0 -1 36 -2 36 47 0 c25 1 55 3 66 6 30 6 71 -11 83 -36 32 -66 18 -104
-48 -128 -25 -9 -46 -24 -48 -33 -3 -15 2 -14 50 4 72 27 107 66 102 115 -7
81 -61 120 -152 109 -84 -9 -98 12 -93 141 1 26 7 33 46 49 29 11 57 16 75 12
33 -6 39 4 14 24 -12 11 -25 10 -71 -4 -46 -15 -57 -16 -64 -4 -13 19 -1 60
24 82 30 25 153 18 174 -10z m-546 -238 c15 -32 24 -67 21 -78 -6 -26 -42 -38
-83 -29 -19 4 -38 9 -44 10 -46 9 -56 15 -51 28 4 8 9 26 12 39 7 29 12 29 44
4 50 -39 76 -16 30 27 -36 33 -36 36 -8 81 l21 34 16 -28 c8 -16 27 -55 42
-88z m755 51 c4 -12 -3 -26 -20 -42 -14 -13 -26 -29 -26 -35 0 -15 26 -12 40
5 7 8 18 15 25 15 14 0 52 -66 43 -75 -8 -8 -44 -15 -109 -22 -49 -5 -58 -3
-66 13 -14 28 -12 34 32 123 l39 82 18 -23 c10 -13 20 -31 24 -41z m-687 -392
c65 -3 76 -6 105 -33 41 -39 68 -47 105 -28 17 9 31 16 33 16 2 0 3 -20 3 -44
l0 -43 -41 5 c-23 2 -58 -1 -77 -7 -42 -14 -72 -3 -82 29 -7 21 -35 28 -35 9
0 -24 36 -70 59 -76 14 -3 45 -2 70 3 86 17 97 10 107 -76 6 -53 2 -59 -52
-66 -45 -6 -71 -19 -84 -44 -15 -28 4 -33 33 -9 26 20 96 35 98 21 14 -74 0
-91 -87 -112 -48 -12 -54 -12 -79 8 -27 22 -55 29 -55 15 0 -14 75 -73 93 -73
9 0 40 12 68 26 60 32 72 25 71 -38 -1 -32 -6 -47 -24 -61 -51 -42 -192 2
-283 89 -25 24 -45 52 -46 61 0 10 -2 26 -4 35 -6 30 18 48 68 52 37 3 55 10
78 32 17 16 49 34 71 39 53 13 62 35 15 35 -51 0 -91 -17 -116 -50 -18 -25
-29 -30 -63 -30 -45 0 -78 -22 -78 -52 0 -10 -4 -18 -9 -18 -27 0 -104 154
-99 197 3 26 6 28 48 28 56 0 66 6 74 46 8 39 25 34 49 -14 20 -41 12 -67 -22
-67 -9 0 -32 -13 -51 -30 -33 -27 -33 -29 -12 -30 34 0 122 48 123 68 6 82
-46 141 -99 113 -11 -6 -22 -21 -25 -33 -5 -20 -12 -23 -62 -23 -54 0 -55 1
-61 32 -11 58 -5 65 81 89 44 12 89 19 100 17 11 -2 53 -6 94 -8z m711 -15 c8
-4 36 -11 61 -15 39 -6 45 -10 43 -28 -1 -12 -3 -33 -3 -47 -1 -22 -5 -25 -43
-26 -24 0 -49 -2 -56 -5 -13 -4 -19 3 -40 48 -14 29 -50 35 -71 12 -22 -24
-46 -102 -38 -124 8 -20 118 -68 129 -57 12 12 -38 52 -75 59 -27 5 -29 9 -24
40 4 19 11 41 18 49 15 18 39 18 39 0 0 -8 8 -24 18 -37 15 -18 28 -22 62 -21
l43 2 -5 -48 c-5 -54 -40 -131 -74 -163 l-22 -21 -7 31 c-9 42 -36 59 -88 54
-38 -4 -45 -1 -75 31 -33 36 -86 54 -118 42 -15 -6 -15 -8 2 -21 10 -8 31 -15
46 -15 19 0 36 -11 59 -40 31 -38 35 -40 76 -36 153 14 43 -189 -125 -234
-109 -28 -164 -7 -164 65 0 58 14 64 76 31 59 -32 59 -32 125 25 37 32 39 37
22 42 -13 3 -26 -3 -38 -19 -25 -34 -39 -36 -88 -14 -24 11 -54 20 -67 20 -21
0 -24 4 -22 38 1 20 2 40 3 45 3 17 75 6 98 -15 29 -27 52 -13 34 20 -11 20
-36 28 -106 34 -28 3 -30 6 -33 51 -2 33 2 57 13 74 16 24 19 25 95 18 l78 -7
26 35 c26 34 33 57 17 57 -5 0 -20 -15 -35 -34 -26 -35 -51 -40 -95 -17 -15 8
-46 8 -80 -1 -11 -2 -15 9 -15 45 -1 26 0 47 2 47 1 0 13 -7 26 -15 38 -25 64
-26 93 -1 45 37 69 47 135 52 34 3 64 7 67 10 7 6 81 -6 101 -16z"/>
</g>
</svg>
